<svg xmlns="http://www.w3.org/2000/svg" width="32" height="32" viewBox="0 0 32 32">
<path  d="M16,0.187c-8.785,0-15.906,7.122-15.906,15.906C0.094,24.879,7.216,32,16,32
	c8.785,0,15.906-7.121,15.906-15.907C31.906,7.309,24.785,0.187,16,0.187z M27.766,19.939c-0.008,0.055-0.014,0.109-0.023,0.16
	c-0.244,1.342-1.414,2.359-2.826,2.359c-1.35,0-2.48-0.932-2.791-2.186c-0.01-0.037-0.015-0.074-0.021-0.113
	c-3.316,0.082-7.535,0.178-10.928,0.25c-0.024,0.092-0.054,0.178-0.086,0.262c-0.438,1.139-1.539,1.945-2.831,1.945
	c-1.248,0-2.317-0.754-2.785-1.826c-0.036-0.084-0.068-0.17-0.097-0.258c-0.075,0.002-0.122,0.002-0.13,0.002
	c0.011,0-0.266,0.037-0.633,0.037c-1.153,0-1.839-0.35-1.983-1.012l-0.005-0.045v-2.492l0.046-0.059
	c0,0.002,0.099-0.145,0.142-0.497c0.055-0.442,0.396-0.818,0.608-0.978c0.095-0.326,0.601-1.169,3.248-1.689
	c1.866-0.367,2.476-0.59,2.669-0.684l0.109-0.102c0.153-0.143,3.853-3.54,8.558-3.446c3.232,0.069,5.389,0.513,6.547,0.75
	c0.451,0.093,0.775,0.159,0.937,0.159c0.078-0.007,0.112-0.009,0.146-0.009c0.226,0,0.355,0.101,0.424,0.185
	c0.148,0.182,0.154,0.444,0.123,0.659c0.084,0.083,0.283,0.244,0.445,0.376c0.672,0.544,1.195,0.988,1.318,1.344
	c0.02,0.053,0.033,0.064,0.033,0.064c0.043,0,0.07-0.003,0.096-0.008c0.043-0.004,0.086-0.008,0.127-0.008
	c0.426,0,0.551,0.412,0.609,0.722c0.08,0.442,0.123,0.954,0.162,1.407c0.041,0.51,0.086,1.088,0.182,1.235
	c0.174,0.273,0.422,1.562-0.064,2.513C28.822,19.486,28.364,19.813,27.766,19.939z"/>
</svg>
