<?xml version="1.0" encoding="utf-8"?>
<!-- Generator: Adobe Illustrator 15.1.0, SVG Export Plug-In . SVG Version: 6.00 Build 0)  -->
<!DOCTYPE svg PUBLIC "-//W3C//DTD SVG 1.1//EN" "http://www.w3.org/Graphics/SVG/1.1/DTD/svg11.dtd">
<svg version="1.1" id="Ebene_1" xmlns="http://www.w3.org/2000/svg" xmlns:xlink="http://www.w3.org/1999/xlink" x="0px" y="0px"
	 width="703.5px" height="819.5px" viewBox="0 0 703.5 819.5" enable-background="new 0 0 703.5 819.5" xml:space="preserve">
<g>
	<defs>
		<rect id="SVGID_1_" x="1.969" y="1.109" width="700.566" height="700.565"/>
	</defs>
	<clipPath id="SVGID_2_">
		<use xlink:href="#SVGID_1_"  overflow="visible"/>
	</clipPath>
	<circle clip-path="url(#SVGID_2_)" fill="none" stroke="#1B181C" stroke-width="1.896" cx="352.252" cy="351.392" r="349.335"/>
</g>
<g>
	<path fill="#1B181C" d="M395.996,315.473l-1.251-4.02h-8.304l-1.327,4.02h-6.939l9.82-26.998h5.119l9.821,26.998H395.996z
		 M390.726,298.713l-2.427,7.205h4.702L390.726,298.713z"/>
	<path fill="#1B181C" d="M420.72,315.473l-6.218-11.072l-2.275,2.617v8.456h-6.56v-26.998h6.56v9.555l7.811-9.555h8.115
		l-9.215,10.92l9.518,16.077H420.72z"/>
	<path fill="#1B181C" d="M442.864,294.391v21.083h-6.636v-21.083h-6.636v-5.915H449.5v5.915H442.864z"/>
	<path fill="#1B181C" d="M452.988,292.988v-4.74h6.219v4.74H452.988z M452.988,315.473V295.87h6.219v19.604H452.988z"/>
	<path fill="#1B181C" d="M475.398,315.473h-4.929l-8.911-26.998h6.863l4.55,15.091l4.475-15.091h6.901L475.398,315.473z"/>
	<path fill="#1B181C" d="M486.698,292.988v-4.74h6.219v4.74H486.698z M486.698,315.473V295.87h6.219v19.604H486.698z"/>
	<path fill="#1B181C" d="M497.999,315.473v-26.998h18.352v5.915h-11.716v4.512h10.01v5.916h-10.01v4.74h11.716v5.915H497.999z"/>
	<path fill="#1B181C" d="M534.703,315.473l-4.778-10.048h-2.236v10.048h-6.636v-26.998h10.692c5.991,0,9.214,4.247,9.214,8.683
		c0,3.678-2.274,5.991-4.398,7.053l5.84,11.262H534.703z M531.442,294.429h-3.754v5.46h3.754c1.819,0,2.881-1.327,2.881-2.73
		S533.262,294.429,531.442,294.429z"/>
	<path fill="#1B181C" d="M555.521,315.701c-5.611,0-10.199-3.792-10.199-9.707v-17.518h6.636v17.366
		c0,2.503,1.364,3.944,3.563,3.944s3.641-1.441,3.641-3.944v-17.366h6.636v17.518C565.797,311.909,561.133,315.701,555.521,315.701z
		"/>
	<path fill="#1B181C" d="M586.083,315.473l-8.645-13.575v13.575h-6.636v-26.998h5.801l8.646,13.575v-13.575h6.636v26.998H586.083z"
		/>
	<path fill="#1B181C" d="M614.561,312.667c-2.313,2.389-4.892,3.034-7.85,3.034c-3.147,0-5.536-1.062-7.508-3.034
		c-2.844-2.844-2.729-6.635-2.729-10.693c0-4.057-0.114-7.849,2.729-10.693c1.972-1.972,4.247-3.033,7.508-3.033
		c6.939,0,9.896,4.512,10.541,8.949h-6.673c-0.531-2.048-1.593-3.034-3.868-3.034c-1.213,0-2.123,0.531-2.616,1.176
		c-0.606,0.796-0.985,1.706-0.985,6.635c0,4.93,0.379,5.877,0.985,6.674c0.493,0.645,1.403,1.138,2.616,1.138
		c1.403,0,2.352-0.417,2.958-1.062c0.758-0.758,1.023-1.858,1.023-2.882v-0.379h-3.981v-5.536h10.579v3.754
		C617.29,308.041,616.607,310.582,614.561,312.667z"/>
</g>
<g>
	<path fill="#1B181C" d="M394.556,345.809l-4.778-10.048h-2.236v10.048h-6.636v-26.998h10.692c5.991,0,9.214,4.247,9.214,8.683
		c0,3.678-2.274,5.991-4.398,7.053l5.84,11.262H394.556z M391.295,324.765h-3.754v5.46h3.754c1.819,0,2.881-1.327,2.881-2.73
		S393.114,324.765,391.295,324.765z"/>
	<path fill="#1B181C" d="M405.248,323.324v-4.74h6.219v4.74H405.248z M405.248,345.809v-19.604h6.219v19.604H405.248z"/>
	<path fill="#1B181C" d="M425.914,346.037c-3.147,0-5.536-1.062-7.508-3.034c-2.844-2.844-2.729-6.635-2.729-10.693
		c0-4.057-0.114-7.849,2.729-10.693c1.972-1.972,4.36-3.033,7.508-3.033c5.119,0,9.252,2.844,10.238,8.797h-6.75
		c-0.417-1.517-1.251-2.882-3.45-2.882c-1.214,0-2.123,0.493-2.616,1.138c-0.606,0.796-1.023,1.744-1.023,6.673
		c0,4.93,0.417,5.877,1.023,6.674c0.493,0.645,1.402,1.138,2.616,1.138c2.199,0,3.033-1.365,3.45-2.882h6.75
		C435.166,343.193,431.033,346.037,425.914,346.037z"/>
	<path fill="#1B181C" d="M453.33,345.809v-10.693h-7.053v10.693h-6.636v-26.998h6.636v10.39h7.053v-10.39h6.635v26.998H453.33z"/>
	<path fill="#1B181C" d="M480.517,345.809l-1.251-4.02h-8.304l-1.327,4.02h-6.939l9.82-26.998h5.119l9.821,26.998H480.517z
		 M475.246,329.049l-2.427,7.205h4.702L475.246,329.049z"/>
	<path fill="#1B181C" d="M503.838,345.809l-4.778-10.048h-2.236v10.048h-6.636v-26.998h10.692c5.991,0,9.214,4.247,9.214,8.683
		c0,3.678-2.274,5.991-4.398,7.053l5.84,11.262H503.838z M500.577,324.765h-3.754v5.46h3.754c1.819,0,2.881-1.327,2.881-2.73
		S502.396,324.765,500.577,324.765z"/>
	<path fill="#1B181C" d="M532.2,343.155c-1.857,1.858-4.474,2.654-7.28,2.654h-10.01v-26.998h10.01c2.807,0,5.423,0.796,7.28,2.654
		c3.147,3.147,2.807,6.598,2.807,10.844C535.007,336.557,535.348,340.008,532.2,343.155z M527.65,326.243
		c-0.606-0.91-1.517-1.517-3.186-1.517h-2.919v15.167h2.919c1.669,0,2.579-0.607,3.186-1.517c0.53-0.758,0.721-1.479,0.721-6.067
		C528.371,327.76,528.181,327.002,527.65,326.243z"/>
	<path fill="#1B181C" d="M550.288,336.178h-4.057v9.631h-6.636v-26.998h10.692c5.991,0,9.214,4.247,9.214,8.683
		S556.279,336.178,550.288,336.178z M549.985,324.765h-3.754v5.46h3.754c1.819,0,2.881-1.327,2.881-2.73
		S551.805,324.765,549.985,324.765z"/>
	<path fill="#1B181C" d="M563.371,345.809v-26.998h6.636v21.083h11.337v5.915H563.371z"/>
	<path fill="#1B181C" d="M600.303,345.809l-1.251-4.02h-8.304l-1.327,4.02h-6.939l9.82-26.998h5.119l9.821,26.998H600.303z
		 M595.032,329.049l-2.427,7.205h4.702L595.032,329.049z"/>
	<path fill="#1B181C" d="M619.415,324.727v21.083h-6.636v-21.083h-6.636v-5.915h19.907v5.915H619.415z"/>
	<path fill="#1B181C" d="M628.325,345.809v-5.157l10.352-15.926h-9.896v-5.915h17.859v5.157l-10.39,15.926h10.39v5.915H628.325z"/>
</g>
<g>
	<path fill="#1B181C" d="M388.603,376.372c-4.134,0-7.508-0.758-10.238-3.564l4.247-4.247c1.403,1.403,3.867,1.896,6.029,1.896
		c2.616,0,3.867-0.873,3.867-2.427c0-0.645-0.151-1.176-0.531-1.593c-0.341-0.341-0.909-0.607-1.781-0.72l-3.262-0.455
		c-2.389-0.341-4.209-1.138-5.422-2.389c-1.251-1.289-1.858-3.109-1.858-5.422c0-4.929,3.716-8.531,9.859-8.531
		c3.867,0,6.787,0.91,9.1,3.223l-4.171,4.171c-1.706-1.707-3.943-1.593-5.119-1.593c-2.313,0-3.261,1.327-3.261,2.503
		c0,0.341,0.114,0.834,0.531,1.251c0.341,0.341,0.91,0.683,1.857,0.796l3.262,0.455c2.427,0.341,4.171,1.1,5.309,2.237
		c1.44,1.403,2.009,3.413,2.009,5.915C399.029,373.376,394.29,376.372,388.603,376.372z"/>
	<path fill="#1B181C" d="M414.197,376.144v-1.668c-1.252,1.251-3.109,1.896-4.74,1.896c-1.934,0-3.488-0.645-4.588-1.744
		c-1.744-1.744-2.048-3.678-2.048-5.839v-13.044h6.219v12.209c0,2.351,1.668,2.806,2.503,2.806c0.834,0,2.502-0.455,2.502-2.806
		v-12.209h6.219v20.4H414.197z M404.718,353.052v-5.498h5.081v5.498H404.718z M413.287,353.052v-5.498h5.081v5.498H413.287z"/>
	<path fill="#1B181C" d="M442.636,373.49c-1.857,1.858-4.474,2.654-7.28,2.654h-10.01v-26.998h10.01c2.807,0,5.423,0.796,7.28,2.654
		c3.147,3.147,2.807,6.598,2.807,10.844C445.442,366.892,445.783,370.343,442.636,373.49z M438.086,356.578
		c-0.606-0.91-1.517-1.517-3.186-1.517h-2.919v15.167h2.919c1.669,0,2.579-0.607,3.186-1.517c0.53-0.758,0.721-1.479,0.721-6.067
		C438.807,358.095,438.616,357.337,438.086,356.578z"/>
</g>
<g>
	<path fill="#1B181C" d="M380.753,406.48v-2.427l10.655-13.537c1.023-1.327,1.517-2.502,1.517-3.981
		c0-2.919-1.744-4.854-4.702-4.854c-2.502,0-4.701,1.403-4.701,4.892h-2.73c0-4.247,2.92-7.318,7.432-7.318
		c4.437,0,7.433,2.844,7.433,7.28c0,2.162-0.683,3.564-2.161,5.461l-9.442,12.058h11.604v2.427H380.753z"/>
	<path fill="#1B181C" d="M407.864,406.708c-4.209,0-7.394-2.958-7.394-7.432v-12.589c0-4.475,3.185-7.432,7.394-7.432
		s7.395,2.958,7.395,7.432v12.589C415.259,403.75,412.073,406.708,407.864,406.708z M412.528,386.839
		c0-2.958-1.668-5.157-4.664-5.157c-2.995,0-4.664,2.199-4.664,5.157v12.285c0,2.958,1.669,5.157,4.664,5.157
		c2.996,0,4.664-2.199,4.664-5.157V386.839z"/>
	<path fill="#1B181C" d="M427.545,406.48v-23.964l-5.043,4.437v-3.109l5.043-4.361h2.729v26.998H427.545z"/>
	<path fill="#1B181C" d="M452.911,404.736c-1.251,1.251-2.995,2.01-5.384,2.01c-2.352,0-4.247-0.759-5.423-1.934
		c-1.175-1.214-1.744-2.769-1.896-4.702h2.73c0.341,2.692,1.744,4.209,4.588,4.209c1.327,0,2.54-0.455,3.337-1.252
		c1.402-1.402,1.479-3.563,1.479-5.498c0-3.299-0.645-6.56-4.55-6.56c-2.352,0-3.944,1.062-4.475,2.654h-2.465v-14.181h13.65v2.426
		h-11.186v8.57c1.062-1.176,2.73-1.858,4.854-1.858c2.01,0,3.603,0.645,4.664,1.706c1.972,1.972,2.237,4.702,2.237,7.242
		C455.073,400.262,454.846,402.803,452.911,404.736z"/>
	<path fill="#1B181C" d="M460.23,397.532v-2.541h10.39v2.541H460.23z"/>
	<path fill="#1B181C" d="M476.08,406.48v-2.427l10.655-13.537c1.023-1.327,1.517-2.502,1.517-3.981c0-2.919-1.744-4.854-4.702-4.854
		c-2.502,0-4.701,1.403-4.701,4.892h-2.73c0-4.247,2.92-7.318,7.432-7.318c4.437,0,7.433,2.844,7.433,7.28
		c0,2.162-0.683,3.564-2.161,5.461l-9.442,12.058h11.604v2.427H476.08z"/>
	<path fill="#1B181C" d="M503.191,406.708c-4.209,0-7.394-2.958-7.394-7.432v-12.589c0-4.475,3.185-7.432,7.394-7.432
		s7.395,2.958,7.395,7.432v12.589C510.586,403.75,507.4,406.708,503.191,406.708z M507.855,386.839c0-2.958-1.668-5.157-4.664-5.157
		c-2.995,0-4.664,2.199-4.664,5.157v12.285c0,2.958,1.669,5.157,4.664,5.157c2.996,0,4.664-2.199,4.664-5.157V386.839z"/>
	<path fill="#1B181C" d="M522.872,406.48v-23.964l-5.043,4.437v-3.109l5.043-4.361h2.729v26.998H522.872z"/>
	<path fill="#1B181C" d="M541.375,406.48h-2.881l9.365-24.571h-9.403v4.247h-2.692v-6.673h14.978v2.426L541.375,406.48z"/>
</g>
<line fill="none" stroke="#1B181C" stroke-width="1.896" x1="350.356" y1="123.929" x2="350.356" y2="580.752"/>
<g>
	<defs>
		<rect id="SVGID_3_" x="1.969" y="1.109" width="700.566" height="700.565"/>
	</defs>
	<clipPath id="SVGID_4_">
		<use xlink:href="#SVGID_3_"  overflow="visible"/>
	</clipPath>
	<path clip-path="url(#SVGID_4_)" fill="#3B7BBB" d="M122.893,338.904c7.421,0,13.437-6.016,13.437-13.437
		c0-7.419-6.016-13.435-13.437-13.435c-7.42,0-13.437,6.016-13.437,13.435C109.456,332.888,115.472,338.904,122.893,338.904"/>
	<path clip-path="url(#SVGID_4_)" fill="#3B7BBB" d="M230.38,419.52c7.421,0,13.438-6.016,13.438-13.438
		c0-7.419-6.017-13.435-13.438-13.435c-7.42,0-13.437,6.016-13.437,13.435C216.943,413.504,222.96,419.52,230.38,419.52"/>
	<path clip-path="url(#SVGID_4_)" fill="#3B7BBB" d="M230.38,365.777c7.421,0,13.438-6.016,13.438-13.437
		c0-7.419-6.017-13.435-13.438-13.435c-7.42,0-13.437,6.016-13.437,13.435C216.943,359.761,222.96,365.777,230.38,365.777"/>
	<path clip-path="url(#SVGID_4_)" fill="#DF007C" d="M122.893,312.032c7.421,0,13.437-6.016,13.437-13.437
		c0-7.419-6.016-13.435-13.437-13.435c-7.42,0-13.437,6.016-13.437,13.435C109.456,306.017,115.472,312.032,122.893,312.032"/>
	<path clip-path="url(#SVGID_4_)" fill="#A55398" d="M122.893,231.417c7.421,0,13.437-6.016,13.437-13.437
		c0-7.419-6.016-13.435-13.437-13.435c-7.42,0-13.437,6.016-13.437,13.435C109.456,225.401,115.472,231.417,122.893,231.417"/>
	<path clip-path="url(#SVGID_4_)" fill="#3B7BBB" d="M176.637,204.544c7.421,0,13.437-6.016,13.437-13.437
		c0-7.419-6.016-13.435-13.437-13.435s-13.437,6.016-13.437,13.435C163.2,198.528,169.216,204.544,176.637,204.544"/>
	<path clip-path="url(#SVGID_4_)" fill="#E51F84" d="M42.277,258.288c7.421,0,13.437-6.016,13.437-13.437
		c0-7.419-6.016-13.435-13.437-13.435s-13.437,6.016-13.437,13.435C28.84,252.272,34.856,258.288,42.277,258.288"/>
	<path clip-path="url(#SVGID_4_)" fill="#A55398" d="M42.277,419.52c7.421,0,13.437-6.016,13.437-13.438
		c0-7.419-6.016-13.435-13.437-13.435s-13.437,6.016-13.437,13.435C28.84,413.504,34.856,419.52,42.277,419.52"/>
	<path clip-path="url(#SVGID_4_)" fill="#514895" d="M69.149,500.137c7.421,0,13.437-6.018,13.437-13.437
		s-6.016-13.437-13.437-13.437s-13.437,6.018-13.437,13.437S61.728,500.137,69.149,500.137"/>
	<path clip-path="url(#SVGID_4_)" fill="#E42725" d="M203.509,527.008c7.421,0,13.437-6.016,13.437-13.437
		c0-7.419-6.016-13.435-13.437-13.435s-13.437,6.016-13.437,13.435C190.072,520.992,196.088,527.008,203.509,527.008"/>
	<path clip-path="url(#SVGID_4_)" fill="#92BD21" d="M310.996,473.264c7.421,0,13.437-6.016,13.437-13.437
		c0-7.419-6.016-13.435-13.437-13.435s-13.437,6.016-13.437,13.435C297.56,467.248,303.575,473.264,310.996,473.264"/>
	<path clip-path="url(#SVGID_4_)" fill="#514895" d="M284.124,338.904c7.421,0,13.437-6.016,13.437-13.437
		c0-7.419-6.016-13.435-13.437-13.435s-13.437,6.016-13.437,13.435C270.688,332.888,276.703,338.904,284.124,338.904"/>
	<path clip-path="url(#SVGID_4_)" fill="#3B7BBB" d="M310.996,285.161c7.421,0,13.437-6.018,13.437-13.438
		c0-7.417-6.016-13.435-13.437-13.435s-13.437,6.018-13.437,13.435C297.56,279.144,303.575,285.161,310.996,285.161"/>
	<path clip-path="url(#SVGID_4_)" fill="#DF007C" d="M96.021,177.673c7.421,0,13.437-6.016,13.437-13.437
		c0-7.419-6.016-13.435-13.437-13.435s-13.437,6.016-13.437,13.435C82.584,171.657,88.6,177.673,96.021,177.673"/>
	<path clip-path="url(#SVGID_4_)" fill="#92BD21" d="M257.252,231.417c7.421,0,13.438-6.016,13.438-13.437
		c0-7.419-6.017-13.435-13.438-13.435c-7.42,0-13.437,6.016-13.437,13.435C243.815,225.401,249.832,231.417,257.252,231.417"/>
	<path clip-path="url(#SVGID_4_)" fill="#FABD0C" d="M284.124,177.673c7.421,0,13.437-6.016,13.437-13.437
		c0-7.419-6.016-13.435-13.437-13.435s-13.437,6.016-13.437,13.435C270.688,171.657,276.703,177.673,284.124,177.673"/>
	<path clip-path="url(#SVGID_4_)" fill="#92BD21" d="M69.149,338.904c7.421,0,13.437-6.016,13.437-13.437
		c0-7.419-6.016-13.435-13.437-13.435s-13.437,6.016-13.437,13.435C55.712,332.888,61.728,338.904,69.149,338.904"/>
	<path clip-path="url(#SVGID_4_)" fill="#E51F84" d="M203.509,365.777c7.421,0,13.437-6.016,13.437-13.437
		c0-7.419-6.016-13.435-13.437-13.435s-13.437,6.016-13.437,13.435C190.072,359.761,196.088,365.777,203.509,365.777"/>
	<path clip-path="url(#SVGID_4_)" fill="#DF007C" d="M230.38,392.647c7.421,0,13.438-6.016,13.438-13.436
		c0-7.419-6.017-13.435-13.438-13.435c-7.42,0-13.437,6.015-13.437,13.435C216.943,386.632,222.96,392.647,230.38,392.647"/>
	<path clip-path="url(#SVGID_4_)" fill="#DF007C" d="M122.893,365.777c7.421,0,13.437-6.016,13.437-13.437
		c0-7.419-6.016-13.435-13.437-13.435c-7.42,0-13.437,6.016-13.437,13.435C109.456,359.761,115.472,365.777,122.893,365.777"/>
	<path clip-path="url(#SVGID_4_)" fill="#FABD0C" d="M149.765,285.161c7.421,0,13.438-6.018,13.438-13.438
		c0-7.417-6.017-13.435-13.438-13.435s-13.437,6.018-13.437,13.435C136.328,279.144,142.344,285.161,149.765,285.161"/>
	<path clip-path="url(#SVGID_4_)" fill="#FABD0C" d="M176.637,365.777c7.421,0,13.437-6.016,13.437-13.437
		c0-7.419-6.016-13.435-13.437-13.435S163.2,344.921,163.2,352.34C163.2,359.761,169.216,365.777,176.637,365.777"/>
	<path clip-path="url(#SVGID_4_)" fill="#CD1421" d="M176.637,285.161c7.421,0,13.437-6.018,13.437-13.438
		c0-7.417-6.016-13.435-13.437-13.435s-13.437,6.018-13.437,13.435C163.2,279.144,169.216,285.161,176.637,285.161"/>
	<path clip-path="url(#SVGID_4_)" fill="#CD1421" d="M230.38,446.393c7.421,0,13.438-6.016,13.438-13.438
		c0-7.419-6.017-13.435-13.438-13.435c-7.42,0-13.437,6.016-13.437,13.435C216.943,440.377,222.96,446.393,230.38,446.393"/>
	<path clip-path="url(#SVGID_4_)" fill="#514895" d="M122.893,392.647c7.421,0,13.437-6.016,13.437-13.436
		c0-7.419-6.016-13.435-13.437-13.435c-7.42,0-13.437,6.015-13.437,13.435C109.456,386.632,115.472,392.647,122.893,392.647"/>
	<path clip-path="url(#SVGID_4_)" fill="#CD1421" d="M230.38,338.904c7.421,0,13.438-6.016,13.438-13.437
		c0-7.419-6.017-13.435-13.438-13.435c-7.42,0-13.437,6.016-13.437,13.435C216.943,332.888,222.96,338.904,230.38,338.904"/>
	<path clip-path="url(#SVGID_4_)" fill="#A55398" d="M122.893,446.393c7.421,0,13.437-6.016,13.437-13.438
		c0-7.419-6.016-13.435-13.437-13.435c-7.42,0-13.437,6.016-13.437,13.435C109.456,440.377,115.472,446.393,122.893,446.393"/>
	<path clip-path="url(#SVGID_4_)" fill="#92BD21" d="M203.509,285.161c7.421,0,13.437-6.018,13.437-13.438
		c0-7.417-6.016-13.435-13.437-13.435s-13.437,6.018-13.437,13.435C190.072,279.144,196.088,285.161,203.509,285.161"/>
	<path clip-path="url(#SVGID_4_)" fill="#92BD21" d="M149.765,365.777c7.421,0,13.438-6.016,13.438-13.437
		c0-7.419-6.017-13.435-13.438-13.435s-13.437,6.016-13.437,13.435C136.328,359.761,142.344,365.777,149.765,365.777"/>
	<path clip-path="url(#SVGID_4_)" fill="#92BD21" d="M122.893,419.52c7.421,0,13.437-6.016,13.437-13.438
		c0-7.419-6.016-13.435-13.437-13.435c-7.42,0-13.437,6.016-13.437,13.435C109.456,413.504,115.472,419.52,122.893,419.52"/>
	<path clip-path="url(#SVGID_4_)" fill="#A55398" d="M230.38,312.032c7.421,0,13.438-6.016,13.438-13.437
		c0-7.419-6.017-13.435-13.438-13.435c-7.42,0-13.437,6.016-13.437,13.435C216.943,306.017,222.96,312.032,230.38,312.032"/>
</g>
<g>
	<g>
		<path d="M298.382,773.796l-1.622-4.579h-8.845l-1.622,4.579h-2.304l7.452-20.251h1.82l7.424,20.251H298.382z M292.38,756.646
			l-3.812,10.694h7.566L292.38,756.646z"/>
		<path d="M315.388,771.635c-1.422,1.535-3.328,2.332-5.404,2.332c-1.991,0-3.811-0.74-5.176-2.105
			c-1.906-1.905-1.906-3.896-1.906-8.191c0-4.294,0-6.285,1.906-8.191c1.365-1.365,3.157-2.104,5.176-2.104
			c3.868,0,6.485,2.503,7.083,6.059h-2.162c-0.568-2.56-2.389-4.124-4.92-4.124c-1.336,0-2.617,0.54-3.499,1.45
			c-1.28,1.309-1.422,2.674-1.422,6.911c0,4.238,0.142,5.632,1.422,6.94c0.882,0.91,2.162,1.422,3.499,1.422
			c1.479,0,2.901-0.597,3.84-1.734c0.825-0.996,1.138-2.105,1.138-3.669v-1.536h-4.978v-1.906h7.139v3.214
			C317.123,768.733,316.64,770.298,315.388,771.635z"/>
		<path d="M321.729,773.796v-2.674h2.674v2.674H321.729z"/>
		<path d="M336.603,773.967c-4.096,0-7.054-2.816-7.054-6.854v-13.567h2.162v13.396c0,3.071,1.934,5.091,4.892,5.091
			s4.92-2.02,4.92-5.091v-13.396h2.162v13.567C343.686,771.15,340.699,773.967,336.603,773.967z"/>
		<path d="M360.891,773.796l-4.607-8.987h-4.864v8.987h-2.162v-20.251h7.765c3.527,0,6.002,2.133,6.002,5.632
			c0,2.958-1.792,4.892-4.409,5.433l4.807,9.187H360.891z M356.823,755.479h-5.404v7.424h5.404c2.361,0,4.039-1.223,4.039-3.697
			S359.185,755.479,356.823,755.479z"/>
		<path d="M375.792,773.796h-7.878v-20.251h7.622c3.527,0,5.974,2.02,5.974,5.404c0,2.133-1.28,3.811-2.987,4.437
			c1.935,0.711,3.3,2.39,3.3,4.807C381.822,771.861,379.376,773.796,375.792,773.796z M375.366,755.479h-5.291v7.025h5.291
			c2.246,0,3.981-1.109,3.981-3.526C379.348,756.56,377.612,755.479,375.366,755.479z M375.594,764.438h-5.519v7.423h5.519
			c2.503,0,4.067-1.45,4.067-3.726S378.097,764.438,375.594,764.438z"/>
		<path d="M398.715,773.796l-1.621-4.579h-8.846l-1.621,4.579h-2.304l7.451-20.251h1.82l7.424,20.251H398.715z M392.713,756.646
			l-3.811,10.694h7.565L392.713,756.646z"/>
		<path d="M417.201,773.796l-10.752-16.24v16.24h-2.161v-20.251h2.048l10.751,16.184v-16.184h2.162v20.251H417.201z"/>
	</g>
	<g>
		<path d="M210.057,813.41c-2.184,0-3.761-1.501-3.761-3.655v-7.234h1.153v7.144c0,1.638,1.031,2.715,2.608,2.715
			c1.578,0,2.624-1.077,2.624-2.715v-7.144h1.153v7.234C213.833,811.909,212.241,813.41,210.057,813.41z"/>
		<path d="M223.01,813.319l-2.457-4.793h-2.594v4.793h-1.153v-10.799h4.141c1.88,0,3.2,1.138,3.2,3.003
			c0,1.577-0.956,2.608-2.351,2.896l2.563,4.899H223.01z M220.841,803.552h-2.882v3.959h2.882c1.259,0,2.154-0.652,2.154-1.973
			C222.995,804.219,222.1,803.552,220.841,803.552z"/>
		<path d="M230.958,813.319h-4.202v-10.799h4.065c1.881,0,3.185,1.076,3.185,2.882c0,1.138-0.682,2.032-1.592,2.366
			c1.031,0.379,1.759,1.273,1.759,2.563C234.173,812.288,232.869,813.319,230.958,813.319z M230.73,803.552h-2.821v3.746h2.821
			c1.198,0,2.124-0.592,2.124-1.881S231.929,803.552,230.73,803.552z M230.852,808.329h-2.942v3.959h2.942
			c1.335,0,2.169-0.773,2.169-1.987C233.021,809.088,232.187,808.329,230.852,808.329z"/>
		<path d="M243.183,813.319l-0.864-2.442h-4.717l-0.864,2.442h-1.229l3.974-10.799h0.971l3.958,10.799H243.183z M239.982,804.174
			l-2.032,5.702h4.034L239.982,804.174z"/>
		<path d="M253.042,813.319l-5.733-8.66v8.66h-1.153v-10.799h1.092l5.733,8.63v-8.63h1.152v10.799H253.042z"/>
		<path d="M267.466,812.318c-0.652,0.652-1.608,1.001-2.73,1.001h-3.701v-10.799h3.701c1.122,0,2.078,0.349,2.73,1.001
			c1.123,1.122,1.062,2.775,1.062,4.277C268.527,809.3,268.588,811.196,267.466,812.318z M266.662,804.34
			c-0.562-0.576-1.29-0.788-2.124-0.788h-2.351v8.736h2.351c0.834,0,1.562-0.213,2.124-0.789c0.743-0.773,0.713-2.381,0.713-3.7
			C267.375,806.479,267.405,805.114,266.662,804.34z"/>
		<path d="M271.243,813.319v-10.799h6.704v1.031h-5.551v3.807h4.732v1.031h-4.732v3.898h5.551v1.031H271.243z"/>
		<path d="M283.119,813.41c-1.623,0-2.685-0.409-3.701-1.426l0.789-0.788c0.895,0.895,1.729,1.183,2.942,1.183
			c1.578,0,2.548-0.743,2.548-2.002c0-0.562-0.167-1.047-0.516-1.35c-0.349-0.304-0.622-0.395-1.41-0.516l-1.259-0.197
			c-0.849-0.137-1.517-0.41-1.987-0.819c-0.546-0.485-0.819-1.152-0.819-2.018c0-1.835,1.319-3.048,3.458-3.048
			c1.38,0,2.29,0.349,3.215,1.183l-0.743,0.743c-0.667-0.606-1.38-0.925-2.518-0.925c-1.441,0-2.275,0.804-2.275,2.002
			c0,0.53,0.151,0.955,0.485,1.243c0.333,0.288,0.895,0.501,1.456,0.592l1.183,0.182c1.017,0.152,1.517,0.364,1.972,0.759
			c0.592,0.501,0.91,1.244,0.91,2.139C286.85,812.242,285.363,813.41,283.119,813.41z"/>
		<path d="M289.262,813.319v-10.799h1.153v10.799H289.262z"/>
		<path d="M299.788,812.167c-0.758,0.818-1.774,1.243-2.882,1.243c-1.062,0-2.032-0.395-2.76-1.122
			c-1.016-1.017-1.016-2.078-1.016-4.368s0-3.353,1.016-4.368c0.728-0.729,1.684-1.122,2.76-1.122c2.063,0,3.458,1.334,3.777,3.23
			h-1.153c-0.303-1.365-1.274-2.199-2.624-2.199c-0.713,0-1.395,0.288-1.865,0.773c-0.683,0.697-0.758,1.426-0.758,3.686
			s0.076,3.003,0.758,3.701c0.47,0.484,1.152,0.758,1.865,0.758c0.789,0,1.547-0.318,2.048-0.925
			c0.44-0.531,0.606-1.123,0.606-1.957v-0.819h-2.654v-1.016h3.807v1.714C300.713,810.619,300.455,811.454,299.788,812.167z"/>
		<path d="M310.284,813.319l-5.733-8.66v8.66h-1.153v-10.799h1.092l5.733,8.63v-8.63h1.152v10.799H310.284z"/>
		<path d="M317.792,814.441h-1.077l4.323-13.044h1.077L317.792,814.441z"/>
		<path d="M323.176,814.441H322.1l4.323-13.044h1.077L323.176,814.441z"/>
		<path d="M339.542,813.319l-3.291-5.748l-2.275,2.729v3.019h-1.153v-10.799h1.153v6.203l5.036-6.203h1.411l-3.397,4.171
			l3.883,6.628H339.542z"/>
		<path d="M348.673,812.288c-0.728,0.728-1.684,1.122-2.761,1.122c-1.077,0-2.032-0.395-2.76-1.122
			c-1.016-1.017-1.016-2.078-1.016-4.368s0-3.353,1.016-4.368c0.728-0.729,1.684-1.122,2.76-1.122c1.077,0,2.033,0.394,2.761,1.122
			c1.016,1.016,1.016,2.078,1.016,4.368S349.689,811.271,348.673,812.288z M347.778,804.234c-0.47-0.485-1.153-0.773-1.866-0.773
			s-1.395,0.288-1.865,0.773c-0.683,0.697-0.759,1.426-0.759,3.686s0.076,2.988,0.759,3.686c0.47,0.485,1.152,0.773,1.865,0.773
			s1.396-0.288,1.866-0.773c0.683-0.697,0.758-1.426,0.758-3.686S348.46,804.932,347.778,804.234z"/>
		<path d="M359.29,813.319l-5.733-8.66v8.66h-1.153v-10.799h1.092l5.733,8.63v-8.63h1.152v10.799H359.29z"/>
		<path d="M362.81,813.319v-1.092l5.398-8.676h-5.187v-1.031h6.491v0.971l-5.444,8.797h5.444v1.031H362.81z"/>
		<path d="M371.94,813.319v-10.799h6.704v1.031h-5.552v3.807h4.732v1.031h-4.732v3.898h5.552v1.031H371.94z"/>
		<path d="M385.06,808.875h-2.866v4.444h-1.152v-10.799h4.019c1.973,0,3.337,1.229,3.337,3.17S387.032,808.875,385.06,808.875z
			 M384.954,803.552h-2.761v4.292h2.761c1.35,0,2.29-0.728,2.29-2.153S386.304,803.552,384.954,803.552z"/>
		<path d="M393.766,803.552v9.768h-1.153v-9.768h-3.124v-1.031h7.401v1.031H393.766z"/>
		<path d="M398.908,813.319v-10.799h6.704v1.031h-5.552v3.807h4.732v1.031h-4.732v3.898h5.552v1.031H398.908z"/>
		<path d="M411.3,814.441h-1.077l4.322-13.044h1.077L411.3,814.441z"/>
		<path d="M416.684,814.441h-1.077l4.322-13.044h1.077L416.684,814.441z"/>
		<path d="M429.105,813.41c-1.623,0-2.685-0.409-3.701-1.426l0.789-0.788c0.895,0.895,1.729,1.183,2.942,1.183
			c1.577,0,2.548-0.743,2.548-2.002c0-0.562-0.167-1.047-0.516-1.35c-0.349-0.304-0.622-0.395-1.41-0.516l-1.259-0.197
			c-0.85-0.137-1.517-0.41-1.987-0.819c-0.546-0.485-0.819-1.152-0.819-2.018c0-1.835,1.32-3.048,3.459-3.048
			c1.38,0,2.29,0.349,3.215,1.183l-0.743,0.743c-0.667-0.606-1.38-0.925-2.518-0.925c-1.441,0-2.275,0.804-2.275,2.002
			c0,0.53,0.152,0.955,0.485,1.243c0.334,0.288,0.896,0.501,1.456,0.592l1.184,0.182c1.016,0.152,1.517,0.364,1.972,0.759
			c0.591,0.501,0.91,1.244,0.91,2.139C432.837,812.242,431.351,813.41,429.105,813.41z"/>
		<path d="M438.419,803.552v9.768h-1.153v-9.768h-3.124v-1.031h7.401v1.031H438.419z"/>
		<path d="M449.764,813.319l-2.457-4.793h-2.594v4.793h-1.152v-10.799h4.141c1.881,0,3.2,1.138,3.2,3.003
			c0,1.577-0.956,2.608-2.352,2.896l2.563,4.899H449.764z M447.595,803.552h-2.882v3.959h2.882c1.259,0,2.153-0.652,2.153-1.973
			C449.748,804.219,448.854,803.552,447.595,803.552z"/>
		<path d="M459.805,813.319l-0.864-2.442h-4.717l-0.865,2.442h-1.229l3.975-10.799h0.971l3.958,10.799H459.805z M456.604,804.174
			l-2.032,5.702h4.034L456.604,804.174z"/>
		<path d="M465.038,803.552v9.768h-1.153v-9.768h-3.124v-1.031h7.401v1.031H465.038z"/>
		<path d="M470.18,813.319v-10.799h6.704v1.031h-5.552v3.807h4.732v1.031h-4.732v3.898h5.552v1.031H470.18z"/>
		<path d="M485.529,812.167c-0.759,0.818-1.775,1.243-2.882,1.243c-1.063,0-2.033-0.395-2.761-1.122
			c-1.017-1.017-1.017-2.078-1.017-4.368s0-3.353,1.017-4.368c0.728-0.729,1.684-1.122,2.761-1.122c2.063,0,3.458,1.334,3.776,3.23
			h-1.152c-0.304-1.365-1.274-2.199-2.624-2.199c-0.713,0-1.396,0.288-1.866,0.773c-0.683,0.697-0.758,1.426-0.758,3.686
			s0.075,3.003,0.758,3.701c0.471,0.484,1.153,0.758,1.866,0.758c0.788,0,1.547-0.318,2.047-0.925
			c0.44-0.531,0.607-1.123,0.607-1.957v-0.819h-2.654v-1.016h3.807v1.714C486.454,810.619,486.196,811.454,485.529,812.167z"/>
		<path d="M489.139,813.319v-10.799h1.152v10.799H489.139z"/>
		<path d="M493.416,813.319v-10.799h6.704v1.031h-5.552v3.807h4.732v1.031h-4.732v3.898h5.552v1.031H493.416z"/>
	</g>
	<line fill="none" stroke="#000000" stroke-width="1.422" x1="126.651" y1="792.378" x2="606.046" y2="792.378"/>
</g>
</svg>
