<svg xmlns="http://www.w3.org/2000/svg" width="32" height="32" viewBox="0 0 32 32">
<path d="M15.969,0.125c-8.785,0-15.906,7.122-15.906,15.906c0,8.783,7.122,15.906,15.906,15.906
	c8.785,0,15.906-7.123,15.906-15.906C31.875,7.247,24.754,0.125,15.969,0.125z M26.238,10.68c0.787,0,1.426,0.639,1.426,1.424
	c0,0.786-0.639,1.424-1.426,1.424c-0.786,0-1.424-0.638-1.424-1.424S25.452,10.68,26.238,10.68z M22.001,8.089
	c1.169,0,2.122,0.952,2.122,2.121c0,1.168-0.953,2.117-2.122,2.117s-2.118-0.948-2.118-2.117C19.883,9.04,20.832,8.089,22.001,8.089
	z M15.999,3.854c1.728,0,3.138,1.406,3.135,3.134c0,1.727-1.407,3.135-3.135,3.135c-1.728,0-3.133-1.408-3.133-3.135
	C12.865,5.26,14.271,3.854,15.999,3.854z M10,8.089c1.167,0,2.117,0.952,2.117,2.121c0,1.168-0.951,2.117-2.117,2.117
	c-1.17,0-2.122-0.948-2.122-2.117C7.878,9.04,8.83,8.089,10,8.089z M5.763,10.68c0.786,0,1.425,0.639,1.425,1.424
	c0,0.786-0.639,1.424-1.425,1.424c-0.787,0-1.426-0.638-1.426-1.424S4.976,10.68,5.763,10.68z M5.837,16.535v4.445H3.421V16.68
	c0-1.292,1.052-2.343,2.342-2.343c0.23,0,0.446,0.044,0.659,0.106C6.058,15.062,5.837,15.771,5.837,16.535z M10.308,15.871v6.763
	H6.613v-6.099c0-1.868,1.519-3.388,3.389-3.388c0.333,0,0.648,0.064,0.95,0.153C10.555,14.075,10.308,14.94,10.308,15.871z
	 M20.913,24.591h-9.829V15.87c0-2.71,2.202-4.915,4.915-4.915c2.709,0,4.915,2.205,4.915,4.915L20.913,24.591L20.913,24.591z
	 M25.389,22.634h-3.699v-6.763c0-0.93-0.246-1.795-0.643-2.571c0.303-0.089,0.62-0.153,0.953-0.153c1.866,0,3.389,1.519,3.389,3.388
	V22.634L25.389,22.634z M26.164,20.979v-4.444c0-0.764-0.225-1.473-0.583-2.091c0.21-0.062,0.431-0.106,0.657-0.106
	c1.289,0,2.341,1.052,2.341,2.343v4.299H26.164z"/>
</svg>
