<svg xmlns="http://www.w3.org/2000/svg" width="32" height="32" viewBox="0 0 32 32">
<path  d="M16.08,0C7.295,0,0.174,7.122,0.174,15.906c0,8.783,7.121,15.904,15.906,15.904s15.906-7.121,15.906-15.904
	C31.986,7.122,24.865,0,16.08,0z M30.578,18.772h-1.104v1.643c0,0.573-0.468,1.039-1.04,1.039h-1.072
	c-0.012,0-0.022-0.002-0.034-0.002v0.036c0,0.571-0.465,1.038-1.038,1.038h-1.072c-0.573,0-1.039-0.467-1.039-1.038v-2.746H8.026
	v2.746c0,0.571-0.466,1.038-1.039,1.038H5.915c-0.573,0-1.039-0.467-1.039-1.038v-0.036c-0.011,0-0.022,0.002-0.033,0.002H3.77
	c-0.572,0-1.039-0.466-1.039-1.039v-1.643H1.625c-0.572,0-1.039-0.465-1.039-1.039v-3.468c0-0.573,0.466-1.038,1.039-1.038h1.106
	v-1.643c0-0.572,0.466-1.039,1.039-1.039h1.073c0.011,0,0.022,0.002,0.033,0.002v-0.035c0-0.572,0.466-1.039,1.039-1.039h1.073
	c0.572,0,1.039,0.467,1.039,1.039v2.792h16.151v-2.792c0-0.572,0.466-1.039,1.039-1.039h1.072c0.573,0,1.038,0.467,1.038,1.039
	v0.035c0.012,0,0.022-0.002,0.034-0.002h1.072c0.572,0,1.04,0.467,1.04,1.039v1.643h1.104c0.573,0,1.039,0.465,1.039,1.038v3.468
	C31.617,18.308,31.151,18.772,30.578,18.772z"/>
</svg>
