<?xml version="1.0" encoding="utf-8"?>
<!-- Generator: Adobe Illustrator 15.1.0, SVG Export Plug-In . SVG Version: 6.00 Build 0)  -->
<!DOCTYPE svg PUBLIC "-//W3C//DTD SVG 1.1//EN" "http://www.w3.org/Graphics/SVG/1.1/DTD/svg11.dtd">
<svg version="1.1" id="Ebene_1" xmlns="http://www.w3.org/2000/svg" xmlns:xlink="http://www.w3.org/1999/xlink" x="0px" y="0px"
	 width="32px" height="32px" viewBox="0 0 32 32" enable-background="new 0 0 32 32" xml:space="preserve">
<g>
	<path fill="grey" d="M16,0.187c-8.785,0-15.906,7.122-15.906,15.906C0.094,24.879,7.216,32,16,32
		c8.786,0,15.907-7.121,15.907-15.907C31.906,7.309,24.785,0.187,16,0.187z M13.313,28.709c0.288-1.227,0.696-2.742,0.771-4.104
		c0.039-0.715-0.143-3.533-0.143-3.533c-0.489,0.125-1.5-0.508-2.205-1.016c-0.509,0.264-1.086,0.416-1.699,0.416
		c-2.045,0-3.704-1.66-3.704-3.705c0-0.066,0.006-0.134,0.01-0.2c-0.841-0.679-1.38-1.717-1.38-2.882
		c0-1.318,0.69-2.473,1.728-3.128c-0.008-0.099-0.015-0.196-0.015-0.296c0-2.047,1.659-3.704,3.704-3.704
		c0.155,0,0.308,0.013,0.458,0.03c0.283-1.764,1.809-3.113,3.652-3.113c1.391,0,2.602,0.768,3.235,1.9
		c0.557-0.334,1.207-0.53,1.904-0.53c1.592,0,2.945,1.007,3.469,2.418c1.865,0.192,3.316,1.769,3.316,3.683
		c0,0.465-0.09,0.908-0.246,1.318c0.578,0.654,0.932,1.509,0.932,2.449c0,1.594-1.008,2.951-2.418,3.474
		c-0.195,1.863-1.77,3.32-3.684,3.32c-0.775,0-1.492-0.23-2.088-0.639l-1.545,1.6c0,0-0.313,1.682-0.285,2.594
		c0.029,0.914,0.686,3.648,0.686,3.648h-4.453V28.709z"/>
	<path fill="none" d="M17.486,17.803c-0.168,0.094-0.342,0.172-0.522,0.238c-0.25,1.045-0.77,2.848,0.1,2.605
		c0.43-0.119,0.918-0.479,1.342-0.855C17.916,19.25,17.586,18.563,17.486,17.803z"/>
	<path fill="none" d="M13.994,17.873c0.455,0.941,1.096,2.102,1.473,2.031c0.342-0.063,0.547-0.904,0.664-1.658
		c-0.15,0.02-0.303,0.031-0.457,0.031C15.066,18.277,14.498,18.131,13.994,17.873z"/>
	<path fill="none" d="M12.747,18.965c1.067,0.717,1.462,0.541,1.463,0.541l-0.728-1.523C13.292,18.35,13.042,18.682,12.747,18.965z"
		/>
</g>
</svg>
